<?xml version="1.0" standalone="no"?>
<!DOCTYPE svg PUBLIC "-//W3C//DTD SVG 20010904//EN"
 "http://www.w3.org/TR/2001/REC-SVG-20010904/DTD/svg10.dtd">
<svg version="1.0" xmlns="http://www.w3.org/2000/svg"
 width="1225.000000pt" height="1242.000000pt" viewBox="0 0 1225.000000 1242.000000"
 preserveAspectRatio="xMidYMid meet">

<g transform="translate(0.000000,1242.000000) scale(0.100000,-0.100000)"
fill="#000000" stroke="none">
<path d="M5960 11680 c-119 -15 -100 -8 -715 -273 -121 -52 -310 -134 -420
-182 -188 -82 -310 -135 -750 -325 -99 -42 -247 -107 -330 -142 -82 -36 -161
-70 -175 -76 -63 -27 -295 -128 -395 -172 -162 -71 -210 -91 -213 -90 -1 0
-24 -11 -51 -24 -131 -67 -161 -148 -83 -229 28 -30 48 -40 207 -111 l100 -44
-2 -54 c-3 -78 -10 -95 -38 -102 -38 -10 -92 -63 -106 -103 -15 -46 -6 -118
18 -152 11 -14 37 -37 57 -51 l38 -25 -6 -70 c-4 -38 -8 -106 -11 -150 -3 -44
-7 -98 -10 -120 -3 -22 -10 -114 -15 -205 -6 -91 -19 -284 -30 -430 -64 -872
-67 -914 -51 -1005 13 -76 124 -416 147 -452 15 -25 39 -30 50 -12 13 21 126
365 140 429 18 75 19 206 5 381 -6 68 -20 252 -31 409 -10 157 -26 380 -35
495 -8 116 -17 248 -20 295 -7 111 -24 321 -30 387 l-5 52 41 23 c111 62 105
234 -11 295 -53 28 -56 32 -63 101 -5 40 -3 53 6 49 10 -4 207 -89 612 -264
44 -19 88 -37 98 -40 16 -5 17 -36 17 -472 0 -443 -1 -476 -25 -666 -15 -110
-37 -258 -51 -330 -14 -71 -30 -197 -36 -280 l-11 -150 -36 -17 c-105 -51
-158 -238 -148 -518 9 -236 61 -447 158 -644 52 -105 156 -222 206 -232 23 -5
35 -15 46 -43 9 -20 41 -97 72 -171 76 -181 203 -421 309 -585 191 -293 394
-529 620 -719 591 -498 1228 -576 1841 -227 173 98 299 194 464 355 284 277
514 601 704 991 49 100 149 330 162 373 3 12 10 22 14 22 4 0 29 14 55 31 110
73 220 289 282 555 26 111 28 134 29 339 0 205 -2 225 -24 293 -29 88 -72 158
-107 174 l-27 12 5 153 c10 289 -18 586 -78 825 -24 96 -24 102 -22 510 l3
412 110 49 c61 26 151 65 200 86 529 226 721 313 751 342 91 88 62 166 -90
239 -76 36 -321 144 -721 315 -93 40 -291 126 -440 190 -148 64 -331 143 -405
175 -194 83 -370 159 -405 175 -43 20 -314 138 -645 280 -41 18 -112 49 -158
69 -45 20 -117 46 -160 57 -88 22 -281 32 -382 19z m1550 -3341 c42 -19 136
-105 132 -121 -1 -5 3 -8 8 -8 6 0 9 -3 8 -7 -1 -5 14 -34 34 -65 46 -70 116
-216 156 -323 52 -136 82 -226 82 -240 0 -8 5 -26 12 -42 6 -15 10 -32 9 -36
-1 -5 23 -5 54 -2 70 9 94 -5 129 -78 96 -196 15 -664 -144 -829 -50 -52 -89
-67 -132 -50 -33 12 -25 23 -72 -108 -172 -477 -482 -943 -814 -1221 -522
-437 -1066 -482 -1594 -133 -401 265 -760 753 -981 1329 -18 50 -37 103 -41
118 -5 22 -11 27 -24 22 -62 -27 -117 -5 -172 69 -49 66 -75 119 -113 230
l-32 91 2 221 c1 240 5 256 61 317 30 32 79 36 117 11 25 -16 25 -16 25 17 0
34 47 216 70 274 6 17 14 39 16 50 4 19 32 79 46 100 25 34 108 164 108 168 0
10 109 117 119 117 5 0 23 14 41 30 18 17 36 30 41 30 5 0 9 5 9 12 0 6 3 8 7
5 3 -4 34 8 67 27 34 18 71 32 83 30 12 -2 79 -29 150 -60 120 -53 220 -96
458 -199 55 -24 156 -68 225 -98 195 -85 268 -100 469 -95 143 4 177 8 246 30
68 22 376 153 900 384 133 58 169 63 235 33z"/>
<path d="M4220 4344 c-58 -7 -202 -18 -320 -24 -483 -26 -843 -98 -1072 -214
-337 -171 -611 -463 -838 -898 -39 -76 -68 -138 -63 -138 4 0 3 -4 -4 -8 -33
-21 -224 -545 -257 -704 -32 -154 -14 -355 44 -510 43 -115 151 -251 275 -345
82 -62 229 -145 385 -217 139 -63 503 -179 725 -230 687 -157 1510 -248 2519
-277 739 -21 1673 12 2295 81 97 10 219 24 271 30 182 20 551 80 775 126 453
93 825 215 1096 360 293 157 446 329 511 574 19 71 23 110 23 235 -1 144 -2
155 -39 280 -42 142 -68 216 -153 433 -31 78 -61 142 -66 142 -6 0 -8 3 -4 6
3 4 -12 43 -35 88 -290 578 -649 923 -1103 1061 -202 62 -500 106 -840 125
-104 6 -252 18 -328 27 -76 8 -139 14 -141 12 -1 -2 -15 -26 -31 -54 -160
-283 -614 -495 -1250 -582 -188 -26 -752 -26 -945 0 -466 62 -821 185 -1060
367 -85 64 -175 165 -205 228 -14 30 -26 41 -40 40 -11 0 -67 -7 -125 -14z"/>
</g>
</svg>
